<svg width="13" height="13" viewBox="0 0 13 13" fill="none" xmlns="http://www.w3.org/2000/svg">
<path fill-rule="evenodd" clip-rule="evenodd" d="M4.30235 7.12297C4.31545 6.98577 4.25079 6.86532 3.81188 6.05768C3.32568 5.163 3.08225 4.38834 3.08225 3.3519C3.08225 0.976062 4.44126 5.14295e-07 6.21615 0C6.49314 -8.0263e-08 6.53731 0.000521796 6.68602 0.00994046C6.91881 0.024684 7.13761 0.0574939 7.35489 0.117221C8.62836 0.467289 9.35446 1.5976 9.35446 3.49141C9.35446 4.65865 9.09857 5.50177 8.6115 6.29615C8.02163 7.25819 8.154 6.98114 8.17351 7.04317C8.15782 6.99329 8.1514 6.98408 8.17214 7.00359C8.23615 7.06384 8.34198 7.13934 8.48741 7.2248C8.76326 7.3869 9.05487 7.52327 9.74593 7.82431C10.6069 8.19937 10.9638 8.36852 11.3592 8.61712C12.0668 9.0619 12.5 9.57364 12.5 10.3034V11.4784C12.5 12.3314 11.8313 13 11.0002 13L1.4909 13C0.655577 13 -0.0140722 12.313 0.000224738 11.4783C0.00145284 11.4208 0.00331927 11.3213 0.00518906 11.1974C0.00868882 10.9655 0.0105906 10.7482 0.01007 10.5709C0.00792834 9.84141 0.42746 9.30419 1.11624 8.83806C1.51349 8.56923 1.89173 8.37757 2.72734 7.99138C3.46104 7.65229 3.73879 7.51471 4.01208 7.34231C4.14902 7.25592 4.24637 7.18071 4.30235 7.12297ZM11.0002 12C11.2805 12 11.5 11.7776 11.5 11.5033V10.3034C11.5 9.11079 7.58007 8.48915 7.21959 7.34326C6.85912 6.19737 8.35445 6.03618 8.35445 3.49141C8.35445 0.946653 6.92607 1.00001 6.21615 1.00001C5.50623 1.00001 4.08226 1.20342 4.08225 3.3519C4.08225 5.50038 5.50487 6.16072 5.2733 7.38192C5.04174 8.60312 1.00623 9.25986 1.01007 10.568C1.01126 10.9724 1 11.4997 1 11.4997C0.99535 11.7715 1.21487 12 1.4909 12H11.0002Z" fill="#529B1C"/>
</svg>
